G75*
%MOIN*%
%OFA0B0*%
%FSLAX24Y24*%
%IPPOS*%
%LPD*%
%AMOC8*
5,1,8,0,0,1.08239X$1,22.5*
%
%ADD10C,0.0100*%
%ADD11C,0.0040*%
%ADD12C,0.0079*%
D10*
X003879Y011783D02*
X003879Y012043D01*
X004765Y012373D02*
X004765Y012633D01*
D11*
X003841Y011420D02*
X003701Y011420D01*
X003841Y011420D02*
X003701Y011560D01*
X003701Y011595D01*
X003736Y011630D01*
X003806Y011630D01*
X003841Y011595D01*
X003931Y011630D02*
X004001Y011630D01*
X003966Y011630D02*
X003966Y011455D01*
X004001Y011420D01*
X004036Y011420D01*
X004071Y011455D01*
X004478Y010912D02*
X004549Y010877D01*
X004619Y010807D01*
X004513Y010807D01*
X004478Y010772D01*
X004478Y010737D01*
X004513Y010702D01*
X004584Y010702D01*
X004619Y010737D01*
X004619Y010807D01*
X004709Y010877D02*
X004744Y010912D01*
X004814Y010912D01*
X004849Y010877D01*
X004849Y010737D01*
X004814Y010702D01*
X004744Y010702D01*
X004709Y010737D01*
X005055Y011814D02*
X005125Y011814D01*
X005160Y011849D01*
X005160Y011919D02*
X005090Y011954D01*
X005055Y011954D01*
X005020Y011919D01*
X005020Y011849D01*
X005055Y011814D01*
X005160Y011919D02*
X005160Y012024D01*
X005020Y012024D01*
X005250Y011989D02*
X005285Y012024D01*
X005355Y012024D01*
X005390Y011989D01*
X005390Y011849D01*
X005355Y011814D01*
X005285Y011814D01*
X005250Y011849D01*
X004919Y012786D02*
X004884Y012786D01*
X004849Y012821D01*
X004849Y012996D01*
X004884Y012996D02*
X004814Y012996D01*
X004723Y012926D02*
X004653Y012996D01*
X004653Y012786D01*
X004723Y012786D02*
X004583Y012786D01*
X004919Y012786D02*
X004954Y012821D01*
X005906Y012580D02*
X005906Y012545D01*
X005941Y012510D01*
X006011Y012510D01*
X006046Y012545D01*
X006046Y012580D01*
X006011Y012615D01*
X005941Y012615D01*
X005906Y012580D01*
X005941Y012510D02*
X005906Y012475D01*
X005906Y012439D01*
X005941Y012404D01*
X006011Y012404D01*
X006046Y012439D01*
X006046Y012475D01*
X006011Y012510D01*
X006136Y012580D02*
X006171Y012615D01*
X006241Y012615D01*
X006276Y012580D01*
X006276Y012439D01*
X006241Y012404D01*
X006171Y012404D01*
X006136Y012439D01*
X003387Y012546D02*
X003352Y012511D01*
X003212Y012511D01*
X003177Y012546D01*
X003177Y012616D01*
X003212Y012651D01*
X003212Y012741D02*
X003177Y012741D01*
X003212Y012741D02*
X003352Y012881D01*
X003387Y012881D01*
X003387Y012741D01*
X003352Y012651D02*
X003387Y012616D01*
X003387Y012546D01*
D12*
X003582Y012700D02*
X003782Y012700D01*
X004666Y012013D02*
X004666Y011813D01*
X004666Y011225D02*
X004666Y011025D01*
X005552Y012403D02*
X005552Y012603D01*
M02*
