G75*
%MOIN*%
%OFA0B0*%
%FSLAX24Y24*%
%IPPOS*%
%LPD*%
%AMOC8*
5,1,8,0,0,1.08239X$1,22.5*
%
%ADD10C,0.0119*%
%ADD11C,0.0118*%
D10*
X003560Y012031D02*
X003718Y012031D01*
X003718Y011795D01*
X003560Y011795D01*
X003560Y012031D01*
X003560Y011913D02*
X003718Y011913D01*
X003718Y012031D02*
X003560Y012031D01*
X004040Y012031D02*
X004198Y012031D01*
X004198Y011795D01*
X004040Y011795D01*
X004040Y012031D01*
X004040Y011913D02*
X004198Y011913D01*
X004198Y012031D02*
X004040Y012031D01*
X004446Y012385D02*
X004604Y012385D01*
X004446Y012385D02*
X004446Y012621D01*
X004604Y012621D01*
X004604Y012385D01*
X004604Y012503D02*
X004446Y012503D01*
X004446Y012621D02*
X004604Y012621D01*
X004926Y012385D02*
X005084Y012385D01*
X004926Y012385D02*
X004926Y012621D01*
X005084Y012621D01*
X005084Y012385D01*
X005084Y012503D02*
X004926Y012503D01*
X004926Y012621D02*
X005084Y012621D01*
D11*
X004853Y011982D02*
X004815Y011982D01*
X004853Y011982D02*
X004853Y011844D01*
X004815Y011844D01*
X004815Y011982D01*
X004815Y011961D02*
X004853Y011961D01*
X004518Y011982D02*
X004480Y011982D01*
X004518Y011982D02*
X004518Y011844D01*
X004480Y011844D01*
X004480Y011982D01*
X004480Y011961D02*
X004518Y011961D01*
X004480Y011194D02*
X004518Y011194D01*
X004518Y011056D01*
X004480Y011056D01*
X004480Y011194D01*
X004480Y011173D02*
X004518Y011173D01*
X004815Y011194D02*
X004853Y011194D01*
X004853Y011056D01*
X004815Y011056D01*
X004815Y011194D01*
X004815Y011173D02*
X004853Y011173D01*
X005366Y012572D02*
X005404Y012572D01*
X005404Y012434D01*
X005366Y012434D01*
X005366Y012572D01*
X005366Y012551D02*
X005404Y012551D01*
X005701Y012572D02*
X005739Y012572D01*
X005739Y012434D01*
X005701Y012434D01*
X005701Y012572D01*
X005701Y012551D02*
X005739Y012551D01*
X003613Y012514D02*
X003613Y012552D01*
X003751Y012552D01*
X003751Y012514D01*
X003613Y012514D01*
X003613Y012848D02*
X003613Y012886D01*
X003751Y012886D01*
X003751Y012848D01*
X003613Y012848D01*
M02*
