G75*
%MOIN*%
%OFA0B0*%
%FSLAX24Y24*%
%IPPOS*%
%LPD*%
%AMOC8*
5,1,8,0,0,1.08239X$1,22.5*
%
%ADD10C,0.0106*%
%ADD11C,0.0700*%
%ADD12C,0.0117*%
%ADD13C,0.0118*%
%ADD14C,0.0060*%
%ADD15C,0.0040*%
%ADD16C,0.0139*%
%ADD17C,0.0080*%
D10*
X003977Y010928D03*
X003977Y011125D03*
X003977Y011322D03*
X003977Y011519D03*
X003977Y011716D03*
X003977Y011913D03*
X003977Y012109D03*
X003977Y012306D03*
X004174Y012306D03*
X004174Y012109D03*
X004174Y011913D03*
X004174Y011716D03*
X004174Y011519D03*
X004174Y011322D03*
X004174Y011125D03*
X004174Y010928D03*
X004371Y010928D03*
X004371Y011125D03*
X004371Y011322D03*
X004371Y011519D03*
X004371Y011716D03*
X004371Y011913D03*
X004371Y012109D03*
X004371Y012306D03*
X004568Y012306D03*
X004568Y012109D03*
X004568Y011913D03*
X004568Y011716D03*
X004568Y011519D03*
X004568Y011322D03*
X004568Y011125D03*
X004568Y010928D03*
X004765Y010928D03*
X004765Y011125D03*
X004765Y011322D03*
X004765Y011519D03*
X004765Y011716D03*
X004765Y011913D03*
X004765Y012109D03*
X004765Y012306D03*
X004962Y012306D03*
X004962Y012109D03*
X004962Y011913D03*
X004962Y011716D03*
X004962Y011519D03*
X004962Y011322D03*
X004962Y011125D03*
X004962Y010928D03*
X005159Y010928D03*
X005159Y011125D03*
X005159Y011322D03*
X005159Y011519D03*
X005159Y011716D03*
X005159Y011913D03*
X005159Y012109D03*
X005159Y012306D03*
X005355Y012306D03*
X005355Y012109D03*
X005355Y011913D03*
X005355Y011716D03*
X005355Y011519D03*
X005355Y011322D03*
X005355Y011125D03*
X005355Y010928D03*
D11*
X002214Y000700D03*
X002214Y001700D03*
X002214Y002700D03*
X002214Y003700D03*
X002214Y004700D03*
X002214Y005700D03*
X002214Y006700D03*
X002214Y007700D03*
X002214Y008700D03*
X002214Y009700D03*
X002214Y010700D03*
X002214Y011700D03*
X002214Y012700D03*
X002214Y013700D03*
X002214Y014700D03*
X002214Y015700D03*
X002214Y016700D03*
X002214Y017700D03*
X002214Y018700D03*
X002214Y019700D03*
X002214Y020700D03*
X002214Y021700D03*
X002214Y022700D03*
X002214Y023700D03*
X004214Y023700D03*
X005214Y023700D03*
X007214Y023700D03*
X007214Y022700D03*
X007214Y021700D03*
X007214Y020700D03*
X007214Y019700D03*
X007214Y018700D03*
X007214Y017700D03*
X007214Y016700D03*
X007214Y015700D03*
X007214Y014700D03*
X007214Y013700D03*
X007214Y012700D03*
X007214Y011700D03*
X007214Y010700D03*
X007214Y009700D03*
X007214Y008700D03*
X007214Y007700D03*
X007214Y006700D03*
X007214Y005700D03*
X007214Y004700D03*
X007214Y003700D03*
X007214Y002700D03*
X007214Y001700D03*
X007214Y000700D03*
X005214Y004700D03*
X005214Y005700D03*
X004214Y005700D03*
X004214Y004700D03*
D12*
X004360Y002637D02*
X003532Y002637D01*
X003532Y002819D01*
X004360Y002819D01*
X004360Y002637D01*
X004360Y002753D02*
X003532Y002753D01*
X003532Y002137D02*
X004360Y002137D01*
X003532Y002137D02*
X003532Y002319D01*
X004360Y002319D01*
X004360Y002137D01*
X004360Y002253D02*
X003532Y002253D01*
X003532Y001637D02*
X004360Y001637D01*
X003532Y001637D02*
X003532Y001819D01*
X004360Y001819D01*
X004360Y001637D01*
X004360Y001753D02*
X003532Y001753D01*
X003532Y001137D02*
X004360Y001137D01*
X003532Y001137D02*
X003532Y001319D01*
X004360Y001319D01*
X004360Y001137D01*
X004360Y001253D02*
X003532Y001253D01*
X003532Y000637D02*
X004360Y000637D01*
X003532Y000637D02*
X003532Y000819D01*
X004360Y000819D01*
X004360Y000637D01*
X004360Y000753D02*
X003532Y000753D01*
X005067Y000637D02*
X005895Y000637D01*
X005067Y000637D02*
X005067Y000819D01*
X005895Y000819D01*
X005895Y000637D01*
X005895Y000753D02*
X005067Y000753D01*
X005067Y001137D02*
X005895Y001137D01*
X005067Y001137D02*
X005067Y001319D01*
X005895Y001319D01*
X005895Y001137D01*
X005895Y001253D02*
X005067Y001253D01*
X005067Y001637D02*
X005895Y001637D01*
X005067Y001637D02*
X005067Y001819D01*
X005895Y001819D01*
X005895Y001637D01*
X005895Y001753D02*
X005067Y001753D01*
X005067Y002137D02*
X005895Y002137D01*
X005067Y002137D02*
X005067Y002319D01*
X005895Y002319D01*
X005895Y002137D01*
X005895Y002253D02*
X005067Y002253D01*
X005067Y002637D02*
X005895Y002637D01*
X005067Y002637D02*
X005067Y002819D01*
X005895Y002819D01*
X005895Y002637D01*
X005895Y002753D02*
X005067Y002753D01*
D13*
X005198Y013409D02*
X005198Y013763D01*
X005198Y013409D02*
X004922Y013409D01*
X004922Y013763D01*
X005198Y013763D01*
X005198Y013526D02*
X004922Y013526D01*
X004922Y013643D02*
X005198Y013643D01*
X005198Y013760D02*
X004922Y013760D01*
X005198Y014393D02*
X005198Y014747D01*
X005198Y014393D02*
X004922Y014393D01*
X004922Y014747D01*
X005198Y014747D01*
X005198Y014510D02*
X004922Y014510D01*
X004922Y014627D02*
X005198Y014627D01*
X005198Y014744D02*
X004922Y014744D01*
X004863Y015141D02*
X004825Y015141D01*
X004863Y015141D02*
X004863Y015003D01*
X004825Y015003D01*
X004825Y015141D01*
X004825Y015120D02*
X004863Y015120D01*
X005159Y015141D02*
X005197Y015141D01*
X005197Y015003D01*
X005159Y015003D01*
X005159Y015141D01*
X005159Y015120D02*
X005197Y015120D01*
X005148Y016327D02*
X005424Y016327D01*
X005424Y015765D01*
X005148Y015765D01*
X005148Y016327D01*
X005148Y015882D02*
X005424Y015882D01*
X005424Y015999D02*
X005148Y015999D01*
X005148Y016116D02*
X005424Y016116D01*
X005424Y016233D02*
X005148Y016233D01*
X005010Y016666D02*
X004972Y016666D01*
X004972Y016804D01*
X005010Y016804D01*
X005010Y016666D01*
X005010Y016783D02*
X004972Y016783D01*
X005307Y016666D02*
X005345Y016666D01*
X005307Y016666D02*
X005307Y016804D01*
X005345Y016804D01*
X005345Y016666D01*
X005345Y016783D02*
X005307Y016783D01*
X004557Y016804D02*
X004519Y016804D01*
X004557Y016804D02*
X004557Y016666D01*
X004519Y016666D01*
X004519Y016804D01*
X004519Y016783D02*
X004557Y016783D01*
X004382Y016327D02*
X004106Y016327D01*
X004382Y016327D02*
X004382Y015765D01*
X004106Y015765D01*
X004106Y016327D01*
X004106Y015882D02*
X004382Y015882D01*
X004382Y015999D02*
X004106Y015999D01*
X004106Y016116D02*
X004382Y016116D01*
X004382Y016233D02*
X004106Y016233D01*
X004185Y016804D02*
X004223Y016804D01*
X004223Y016666D01*
X004185Y016666D01*
X004185Y016804D01*
X004185Y016783D02*
X004223Y016783D01*
X004174Y015003D02*
X004136Y015003D01*
X004136Y015141D01*
X004174Y015141D01*
X004174Y015003D01*
X004174Y015120D02*
X004136Y015120D01*
X004411Y014747D02*
X004411Y014393D01*
X004135Y014393D01*
X004135Y014747D01*
X004411Y014747D01*
X004411Y014510D02*
X004135Y014510D01*
X004135Y014627D02*
X004411Y014627D01*
X004411Y014744D02*
X004135Y014744D01*
X004470Y015003D02*
X004508Y015003D01*
X004470Y015003D02*
X004470Y015141D01*
X004508Y015141D01*
X004508Y015003D01*
X004508Y015120D02*
X004470Y015120D01*
X004411Y013763D02*
X004411Y013409D01*
X004135Y013409D01*
X004135Y013763D01*
X004411Y013763D01*
X004411Y013526D02*
X004135Y013526D01*
X004135Y013643D02*
X004411Y013643D01*
X004411Y013760D02*
X004135Y013760D01*
D14*
X004568Y011716D02*
X004568Y011617D01*
X004568Y011519D01*
X004568Y011420D01*
X004568Y011322D01*
X004765Y011322D02*
X004765Y011420D01*
X004765Y011519D01*
X004765Y011617D01*
X004765Y011716D01*
D15*
X004863Y011814D01*
X004863Y011962D01*
X004962Y012060D01*
X004962Y012109D01*
X004863Y012060D02*
X004863Y013044D01*
X004912Y013094D01*
X005060Y012995D02*
X004962Y012897D01*
X004962Y012306D01*
X004863Y012060D02*
X004765Y011962D01*
X004765Y011913D01*
X004666Y012011D02*
X004765Y012109D01*
X004666Y012011D02*
X004666Y011814D01*
X004568Y011716D01*
X004568Y011617D02*
X004509Y011617D01*
X004470Y011814D02*
X004322Y011814D01*
X004273Y011863D01*
X004273Y011962D01*
X004223Y012011D01*
X004125Y012011D01*
X004076Y012060D01*
X004076Y012149D01*
X004017Y012208D01*
X003584Y012208D01*
X003288Y012503D01*
X003288Y017625D01*
X002214Y018700D01*
X002214Y017700D02*
X003190Y016724D01*
X003190Y012405D01*
X003485Y012109D01*
X003977Y012109D01*
X004027Y012011D02*
X004125Y011913D01*
X004174Y011913D01*
X004076Y011814D02*
X004174Y011716D01*
X004076Y011814D02*
X003190Y011814D01*
X002895Y012109D01*
X002895Y014019D01*
X002214Y014700D01*
X002993Y014920D02*
X002214Y015700D01*
X003092Y015822D02*
X002214Y016700D01*
X002993Y014920D02*
X002993Y012208D01*
X003288Y011913D01*
X003977Y011913D01*
X004027Y012011D02*
X003387Y012011D01*
X003092Y012306D01*
X003092Y015822D01*
X003840Y017031D02*
X003840Y022158D01*
X003805Y022193D01*
X003387Y022611D01*
X003387Y024141D01*
X006044Y024141D01*
X006044Y022615D01*
X005493Y022063D01*
X005493Y017154D01*
X005429Y017090D01*
X004051Y017090D01*
X004016Y017055D01*
X003991Y017031D01*
X003840Y017031D01*
X003840Y017063D02*
X004024Y017063D01*
X004076Y017031D02*
X005454Y017031D01*
X005552Y017129D01*
X005552Y022039D01*
X007214Y023700D01*
X007214Y022700D02*
X005749Y021235D01*
X005749Y012877D01*
X005670Y012798D01*
X005552Y012985D02*
X005552Y015653D01*
X005286Y015919D01*
X005286Y016046D01*
X005326Y016087D01*
X005384Y015554D02*
X004568Y015554D01*
X004244Y015878D01*
X004244Y016046D01*
X004204Y016087D01*
X003879Y016834D02*
X004076Y017031D01*
X004290Y017294D02*
X003840Y017294D01*
X003840Y017256D02*
X004329Y017256D01*
X004361Y017224D02*
X004361Y017182D01*
X004424Y017119D01*
X004515Y017119D01*
X004579Y017182D01*
X004579Y017273D01*
X004515Y017337D01*
X004473Y017337D01*
X004293Y017516D01*
X004293Y023311D01*
X004434Y023370D01*
X004544Y023479D01*
X004603Y023622D01*
X004603Y023778D01*
X004544Y023921D01*
X004434Y024030D01*
X004291Y024090D01*
X004136Y024090D01*
X003993Y024030D01*
X003883Y023921D01*
X003824Y023778D01*
X003824Y023622D01*
X003883Y023479D01*
X003993Y023370D01*
X004134Y023311D01*
X004134Y017450D01*
X004361Y017224D01*
X004361Y017217D02*
X003840Y017217D01*
X003840Y017179D02*
X004364Y017179D01*
X004403Y017140D02*
X003840Y017140D01*
X003840Y017102D02*
X005440Y017102D01*
X005479Y017140D02*
X005127Y017140D01*
X005105Y017119D02*
X005169Y017182D01*
X005169Y017273D01*
X005140Y017302D01*
X005140Y023310D01*
X005291Y023310D01*
X005434Y023370D01*
X005544Y023479D01*
X005603Y023622D01*
X005603Y023778D01*
X005544Y023921D01*
X005434Y024030D01*
X005291Y024090D01*
X005136Y024090D01*
X004993Y024030D01*
X004883Y023921D01*
X004824Y023778D01*
X004824Y023622D01*
X004883Y023479D01*
X004980Y023382D01*
X004980Y017302D01*
X004951Y017273D01*
X004951Y017182D01*
X005015Y017119D01*
X005105Y017119D01*
X005165Y017179D02*
X005493Y017179D01*
X005493Y017217D02*
X005169Y017217D01*
X005169Y017256D02*
X005493Y017256D01*
X005493Y017294D02*
X005148Y017294D01*
X005140Y017333D02*
X005493Y017333D01*
X005493Y017371D02*
X005140Y017371D01*
X005140Y017410D02*
X005493Y017410D01*
X005493Y017448D02*
X005140Y017448D01*
X005140Y017487D02*
X005493Y017487D01*
X005493Y017525D02*
X005140Y017525D01*
X005140Y017564D02*
X005493Y017564D01*
X005493Y017602D02*
X005140Y017602D01*
X005140Y017641D02*
X005493Y017641D01*
X005493Y017679D02*
X005140Y017679D01*
X005140Y017718D02*
X005493Y017718D01*
X005493Y017756D02*
X005140Y017756D01*
X005140Y017795D02*
X005493Y017795D01*
X005493Y017833D02*
X005140Y017833D01*
X005140Y017872D02*
X005493Y017872D01*
X005493Y017910D02*
X005140Y017910D01*
X005140Y017949D02*
X005493Y017949D01*
X005493Y017987D02*
X005140Y017987D01*
X005140Y018026D02*
X005493Y018026D01*
X005493Y018064D02*
X005140Y018064D01*
X005140Y018103D02*
X005493Y018103D01*
X005493Y018141D02*
X005140Y018141D01*
X005140Y018180D02*
X005493Y018180D01*
X005493Y018218D02*
X005140Y018218D01*
X005140Y018257D02*
X005493Y018257D01*
X005493Y018295D02*
X005140Y018295D01*
X005140Y018334D02*
X005493Y018334D01*
X005493Y018372D02*
X005140Y018372D01*
X005140Y018411D02*
X005493Y018411D01*
X005493Y018449D02*
X005140Y018449D01*
X005140Y018488D02*
X005493Y018488D01*
X005493Y018526D02*
X005140Y018526D01*
X005140Y018565D02*
X005493Y018565D01*
X005493Y018603D02*
X005140Y018603D01*
X005140Y018642D02*
X005493Y018642D01*
X005493Y018680D02*
X005140Y018680D01*
X005140Y018719D02*
X005493Y018719D01*
X005493Y018757D02*
X005140Y018757D01*
X005140Y018796D02*
X005493Y018796D01*
X005493Y018834D02*
X005140Y018834D01*
X005140Y018873D02*
X005493Y018873D01*
X005493Y018911D02*
X005140Y018911D01*
X005140Y018950D02*
X005493Y018950D01*
X005493Y018988D02*
X005140Y018988D01*
X005140Y019027D02*
X005493Y019027D01*
X005493Y019065D02*
X005140Y019065D01*
X005140Y019104D02*
X005493Y019104D01*
X005493Y019142D02*
X005140Y019142D01*
X005140Y019181D02*
X005493Y019181D01*
X005493Y019219D02*
X005140Y019219D01*
X005140Y019258D02*
X005493Y019258D01*
X005493Y019296D02*
X005140Y019296D01*
X005140Y019335D02*
X005493Y019335D01*
X005493Y019373D02*
X005140Y019373D01*
X005140Y019412D02*
X005493Y019412D01*
X005493Y019450D02*
X005140Y019450D01*
X005140Y019489D02*
X005493Y019489D01*
X005493Y019527D02*
X005140Y019527D01*
X005140Y019566D02*
X005493Y019566D01*
X005493Y019604D02*
X005140Y019604D01*
X005140Y019643D02*
X005493Y019643D01*
X005493Y019681D02*
X005140Y019681D01*
X005140Y019720D02*
X005493Y019720D01*
X005493Y019758D02*
X005140Y019758D01*
X005140Y019797D02*
X005493Y019797D01*
X005493Y019835D02*
X005140Y019835D01*
X005140Y019874D02*
X005493Y019874D01*
X005493Y019912D02*
X005140Y019912D01*
X005140Y019951D02*
X005493Y019951D01*
X005493Y019989D02*
X005140Y019989D01*
X005140Y020028D02*
X005493Y020028D01*
X005493Y020066D02*
X005140Y020066D01*
X005140Y020105D02*
X005493Y020105D01*
X005493Y020143D02*
X005140Y020143D01*
X005140Y020182D02*
X005493Y020182D01*
X005493Y020220D02*
X005140Y020220D01*
X005140Y020259D02*
X005493Y020259D01*
X005493Y020297D02*
X005140Y020297D01*
X005140Y020336D02*
X005493Y020336D01*
X005493Y020374D02*
X005140Y020374D01*
X005140Y020413D02*
X005493Y020413D01*
X005493Y020451D02*
X005140Y020451D01*
X005140Y020490D02*
X005493Y020490D01*
X005493Y020528D02*
X005140Y020528D01*
X005140Y020567D02*
X005493Y020567D01*
X005493Y020605D02*
X005140Y020605D01*
X005140Y020644D02*
X005493Y020644D01*
X005493Y020682D02*
X005140Y020682D01*
X005140Y020721D02*
X005493Y020721D01*
X005493Y020759D02*
X005140Y020759D01*
X005140Y020798D02*
X005493Y020798D01*
X005493Y020836D02*
X005140Y020836D01*
X005140Y020875D02*
X005493Y020875D01*
X005493Y020913D02*
X005140Y020913D01*
X005140Y020952D02*
X005493Y020952D01*
X005493Y020990D02*
X005140Y020990D01*
X005140Y021029D02*
X005493Y021029D01*
X005493Y021067D02*
X005140Y021067D01*
X005140Y021106D02*
X005493Y021106D01*
X005493Y021144D02*
X005140Y021144D01*
X005140Y021183D02*
X005493Y021183D01*
X005493Y021221D02*
X005140Y021221D01*
X005140Y021260D02*
X005493Y021260D01*
X005493Y021298D02*
X005140Y021298D01*
X005140Y021337D02*
X005493Y021337D01*
X005493Y021375D02*
X005140Y021375D01*
X005140Y021414D02*
X005493Y021414D01*
X005493Y021452D02*
X005140Y021452D01*
X005140Y021491D02*
X005493Y021491D01*
X005493Y021529D02*
X005140Y021529D01*
X005140Y021568D02*
X005493Y021568D01*
X005493Y021606D02*
X005140Y021606D01*
X005140Y021645D02*
X005493Y021645D01*
X005493Y021683D02*
X005140Y021683D01*
X005140Y021722D02*
X005493Y021722D01*
X005493Y021760D02*
X005140Y021760D01*
X005140Y021799D02*
X005493Y021799D01*
X005493Y021837D02*
X005140Y021837D01*
X005140Y021876D02*
X005493Y021876D01*
X005493Y021914D02*
X005140Y021914D01*
X005140Y021953D02*
X005493Y021953D01*
X005493Y021991D02*
X005140Y021991D01*
X005140Y022030D02*
X005493Y022030D01*
X005497Y022068D02*
X005140Y022068D01*
X005140Y022107D02*
X005536Y022107D01*
X005574Y022145D02*
X005140Y022145D01*
X005140Y022184D02*
X005613Y022184D01*
X005651Y022222D02*
X005140Y022222D01*
X005140Y022261D02*
X005690Y022261D01*
X005728Y022299D02*
X005140Y022299D01*
X005140Y022338D02*
X005767Y022338D01*
X005805Y022376D02*
X005140Y022376D01*
X005140Y022415D02*
X005844Y022415D01*
X005882Y022453D02*
X005140Y022453D01*
X005140Y022492D02*
X005921Y022492D01*
X005959Y022530D02*
X005140Y022530D01*
X005140Y022569D02*
X005998Y022569D01*
X006036Y022607D02*
X005140Y022607D01*
X005140Y022646D02*
X006044Y022646D01*
X006044Y022684D02*
X005140Y022684D01*
X005140Y022723D02*
X006044Y022723D01*
X006044Y022761D02*
X005140Y022761D01*
X005140Y022800D02*
X006044Y022800D01*
X006044Y022838D02*
X005140Y022838D01*
X005140Y022877D02*
X006044Y022877D01*
X006044Y022915D02*
X005140Y022915D01*
X005140Y022954D02*
X006044Y022954D01*
X006044Y022992D02*
X005140Y022992D01*
X005140Y023031D02*
X006044Y023031D01*
X006044Y023069D02*
X005140Y023069D01*
X005140Y023108D02*
X006044Y023108D01*
X006044Y023146D02*
X005140Y023146D01*
X005140Y023185D02*
X006044Y023185D01*
X006044Y023223D02*
X005140Y023223D01*
X005140Y023262D02*
X006044Y023262D01*
X006044Y023300D02*
X005140Y023300D01*
X004980Y023300D02*
X004293Y023300D01*
X004293Y023262D02*
X004980Y023262D01*
X004980Y023223D02*
X004293Y023223D01*
X004293Y023185D02*
X004980Y023185D01*
X004980Y023146D02*
X004293Y023146D01*
X004293Y023108D02*
X004980Y023108D01*
X004980Y023069D02*
X004293Y023069D01*
X004293Y023031D02*
X004980Y023031D01*
X004980Y022992D02*
X004293Y022992D01*
X004293Y022954D02*
X004980Y022954D01*
X004980Y022915D02*
X004293Y022915D01*
X004293Y022877D02*
X004980Y022877D01*
X004980Y022838D02*
X004293Y022838D01*
X004293Y022800D02*
X004980Y022800D01*
X004980Y022761D02*
X004293Y022761D01*
X004293Y022723D02*
X004980Y022723D01*
X004980Y022684D02*
X004293Y022684D01*
X004293Y022646D02*
X004980Y022646D01*
X004980Y022607D02*
X004293Y022607D01*
X004293Y022569D02*
X004980Y022569D01*
X004980Y022530D02*
X004293Y022530D01*
X004293Y022492D02*
X004980Y022492D01*
X004980Y022453D02*
X004293Y022453D01*
X004293Y022415D02*
X004980Y022415D01*
X004980Y022376D02*
X004293Y022376D01*
X004293Y022338D02*
X004980Y022338D01*
X004980Y022299D02*
X004293Y022299D01*
X004293Y022261D02*
X004980Y022261D01*
X004980Y022222D02*
X004293Y022222D01*
X004293Y022184D02*
X004980Y022184D01*
X004980Y022145D02*
X004293Y022145D01*
X004293Y022107D02*
X004980Y022107D01*
X004980Y022068D02*
X004293Y022068D01*
X004293Y022030D02*
X004980Y022030D01*
X004980Y021991D02*
X004293Y021991D01*
X004293Y021953D02*
X004980Y021953D01*
X004980Y021914D02*
X004293Y021914D01*
X004293Y021876D02*
X004980Y021876D01*
X004980Y021837D02*
X004293Y021837D01*
X004293Y021799D02*
X004980Y021799D01*
X004980Y021760D02*
X004293Y021760D01*
X004293Y021722D02*
X004980Y021722D01*
X004980Y021683D02*
X004293Y021683D01*
X004293Y021645D02*
X004980Y021645D01*
X004980Y021606D02*
X004293Y021606D01*
X004293Y021568D02*
X004980Y021568D01*
X004980Y021529D02*
X004293Y021529D01*
X004293Y021491D02*
X004980Y021491D01*
X004980Y021452D02*
X004293Y021452D01*
X004293Y021414D02*
X004980Y021414D01*
X004980Y021375D02*
X004293Y021375D01*
X004293Y021337D02*
X004980Y021337D01*
X004980Y021298D02*
X004293Y021298D01*
X004293Y021260D02*
X004980Y021260D01*
X004980Y021221D02*
X004293Y021221D01*
X004293Y021183D02*
X004980Y021183D01*
X004980Y021144D02*
X004293Y021144D01*
X004293Y021106D02*
X004980Y021106D01*
X004980Y021067D02*
X004293Y021067D01*
X004293Y021029D02*
X004980Y021029D01*
X004980Y020990D02*
X004293Y020990D01*
X004293Y020952D02*
X004980Y020952D01*
X004980Y020913D02*
X004293Y020913D01*
X004293Y020875D02*
X004980Y020875D01*
X004980Y020836D02*
X004293Y020836D01*
X004293Y020798D02*
X004980Y020798D01*
X004980Y020759D02*
X004293Y020759D01*
X004293Y020721D02*
X004980Y020721D01*
X004980Y020682D02*
X004293Y020682D01*
X004293Y020644D02*
X004980Y020644D01*
X004980Y020605D02*
X004293Y020605D01*
X004293Y020567D02*
X004980Y020567D01*
X004980Y020528D02*
X004293Y020528D01*
X004293Y020490D02*
X004980Y020490D01*
X004980Y020451D02*
X004293Y020451D01*
X004293Y020413D02*
X004980Y020413D01*
X004980Y020374D02*
X004293Y020374D01*
X004293Y020336D02*
X004980Y020336D01*
X004980Y020297D02*
X004293Y020297D01*
X004293Y020259D02*
X004980Y020259D01*
X004980Y020220D02*
X004293Y020220D01*
X004293Y020182D02*
X004980Y020182D01*
X004980Y020143D02*
X004293Y020143D01*
X004293Y020105D02*
X004980Y020105D01*
X004980Y020066D02*
X004293Y020066D01*
X004293Y020028D02*
X004980Y020028D01*
X004980Y019989D02*
X004293Y019989D01*
X004293Y019951D02*
X004980Y019951D01*
X004980Y019912D02*
X004293Y019912D01*
X004293Y019874D02*
X004980Y019874D01*
X004980Y019835D02*
X004293Y019835D01*
X004293Y019797D02*
X004980Y019797D01*
X004980Y019758D02*
X004293Y019758D01*
X004293Y019720D02*
X004980Y019720D01*
X004980Y019681D02*
X004293Y019681D01*
X004293Y019643D02*
X004980Y019643D01*
X004980Y019604D02*
X004293Y019604D01*
X004293Y019566D02*
X004980Y019566D01*
X004980Y019527D02*
X004293Y019527D01*
X004293Y019489D02*
X004980Y019489D01*
X004980Y019450D02*
X004293Y019450D01*
X004293Y019412D02*
X004980Y019412D01*
X004980Y019373D02*
X004293Y019373D01*
X004293Y019335D02*
X004980Y019335D01*
X004980Y019296D02*
X004293Y019296D01*
X004293Y019258D02*
X004980Y019258D01*
X004980Y019219D02*
X004293Y019219D01*
X004293Y019181D02*
X004980Y019181D01*
X004980Y019142D02*
X004293Y019142D01*
X004293Y019104D02*
X004980Y019104D01*
X004980Y019065D02*
X004293Y019065D01*
X004293Y019027D02*
X004980Y019027D01*
X004980Y018988D02*
X004293Y018988D01*
X004293Y018950D02*
X004980Y018950D01*
X004980Y018911D02*
X004293Y018911D01*
X004293Y018873D02*
X004980Y018873D01*
X004980Y018834D02*
X004293Y018834D01*
X004293Y018796D02*
X004980Y018796D01*
X004980Y018757D02*
X004293Y018757D01*
X004293Y018719D02*
X004980Y018719D01*
X004980Y018680D02*
X004293Y018680D01*
X004293Y018642D02*
X004980Y018642D01*
X004980Y018603D02*
X004293Y018603D01*
X004293Y018565D02*
X004980Y018565D01*
X004980Y018526D02*
X004293Y018526D01*
X004293Y018488D02*
X004980Y018488D01*
X004980Y018449D02*
X004293Y018449D01*
X004293Y018411D02*
X004980Y018411D01*
X004980Y018372D02*
X004293Y018372D01*
X004293Y018334D02*
X004980Y018334D01*
X004980Y018295D02*
X004293Y018295D01*
X004293Y018257D02*
X004980Y018257D01*
X004980Y018218D02*
X004293Y018218D01*
X004293Y018180D02*
X004980Y018180D01*
X004980Y018141D02*
X004293Y018141D01*
X004293Y018103D02*
X004980Y018103D01*
X004980Y018064D02*
X004293Y018064D01*
X004293Y018026D02*
X004980Y018026D01*
X004980Y017987D02*
X004293Y017987D01*
X004293Y017949D02*
X004980Y017949D01*
X004980Y017910D02*
X004293Y017910D01*
X004293Y017872D02*
X004980Y017872D01*
X004980Y017833D02*
X004293Y017833D01*
X004293Y017795D02*
X004980Y017795D01*
X004980Y017756D02*
X004293Y017756D01*
X004293Y017718D02*
X004980Y017718D01*
X004980Y017679D02*
X004293Y017679D01*
X004293Y017641D02*
X004980Y017641D01*
X004980Y017602D02*
X004293Y017602D01*
X004293Y017564D02*
X004980Y017564D01*
X004980Y017525D02*
X004293Y017525D01*
X004323Y017487D02*
X004980Y017487D01*
X004980Y017448D02*
X004362Y017448D01*
X004400Y017410D02*
X004980Y017410D01*
X004980Y017371D02*
X004439Y017371D01*
X004519Y017333D02*
X004980Y017333D01*
X004972Y017294D02*
X004557Y017294D01*
X004579Y017256D02*
X004951Y017256D01*
X004951Y017217D02*
X004579Y017217D01*
X004575Y017179D02*
X004955Y017179D01*
X004993Y017140D02*
X004536Y017140D01*
X004252Y017333D02*
X003840Y017333D01*
X003840Y017371D02*
X004213Y017371D01*
X004175Y017410D02*
X003840Y017410D01*
X003840Y017448D02*
X004136Y017448D01*
X004134Y017487D02*
X003840Y017487D01*
X003840Y017525D02*
X004134Y017525D01*
X004134Y017564D02*
X003840Y017564D01*
X003840Y017602D02*
X004134Y017602D01*
X004134Y017641D02*
X003840Y017641D01*
X003840Y017679D02*
X004134Y017679D01*
X004134Y017718D02*
X003840Y017718D01*
X003840Y017756D02*
X004134Y017756D01*
X004134Y017795D02*
X003840Y017795D01*
X003840Y017833D02*
X004134Y017833D01*
X004134Y017872D02*
X003840Y017872D01*
X003840Y017910D02*
X004134Y017910D01*
X004134Y017949D02*
X003840Y017949D01*
X003840Y017987D02*
X004134Y017987D01*
X004134Y018026D02*
X003840Y018026D01*
X003840Y018064D02*
X004134Y018064D01*
X004134Y018103D02*
X003840Y018103D01*
X003840Y018141D02*
X004134Y018141D01*
X004134Y018180D02*
X003840Y018180D01*
X003840Y018218D02*
X004134Y018218D01*
X004134Y018257D02*
X003840Y018257D01*
X003840Y018295D02*
X004134Y018295D01*
X004134Y018334D02*
X003840Y018334D01*
X003840Y018372D02*
X004134Y018372D01*
X004134Y018411D02*
X003840Y018411D01*
X003840Y018449D02*
X004134Y018449D01*
X004134Y018488D02*
X003840Y018488D01*
X003840Y018526D02*
X004134Y018526D01*
X004134Y018565D02*
X003840Y018565D01*
X003840Y018603D02*
X004134Y018603D01*
X004134Y018642D02*
X003840Y018642D01*
X003840Y018680D02*
X004134Y018680D01*
X004134Y018719D02*
X003840Y018719D01*
X003840Y018757D02*
X004134Y018757D01*
X004134Y018796D02*
X003840Y018796D01*
X003840Y018834D02*
X004134Y018834D01*
X004134Y018873D02*
X003840Y018873D01*
X003840Y018911D02*
X004134Y018911D01*
X004134Y018950D02*
X003840Y018950D01*
X003840Y018988D02*
X004134Y018988D01*
X004134Y019027D02*
X003840Y019027D01*
X003840Y019065D02*
X004134Y019065D01*
X004134Y019104D02*
X003840Y019104D01*
X003840Y019142D02*
X004134Y019142D01*
X004134Y019181D02*
X003840Y019181D01*
X003840Y019219D02*
X004134Y019219D01*
X004134Y019258D02*
X003840Y019258D01*
X003840Y019296D02*
X004134Y019296D01*
X004134Y019335D02*
X003840Y019335D01*
X003840Y019373D02*
X004134Y019373D01*
X004134Y019412D02*
X003840Y019412D01*
X003840Y019450D02*
X004134Y019450D01*
X004134Y019489D02*
X003840Y019489D01*
X003840Y019527D02*
X004134Y019527D01*
X004134Y019566D02*
X003840Y019566D01*
X003840Y019604D02*
X004134Y019604D01*
X004134Y019643D02*
X003840Y019643D01*
X003840Y019681D02*
X004134Y019681D01*
X004134Y019720D02*
X003840Y019720D01*
X003840Y019758D02*
X004134Y019758D01*
X004134Y019797D02*
X003840Y019797D01*
X003840Y019835D02*
X004134Y019835D01*
X004134Y019874D02*
X003840Y019874D01*
X003840Y019912D02*
X004134Y019912D01*
X004134Y019951D02*
X003840Y019951D01*
X003840Y019989D02*
X004134Y019989D01*
X004134Y020028D02*
X003840Y020028D01*
X003840Y020066D02*
X004134Y020066D01*
X004134Y020105D02*
X003840Y020105D01*
X003840Y020143D02*
X004134Y020143D01*
X004134Y020182D02*
X003840Y020182D01*
X003840Y020220D02*
X004134Y020220D01*
X004134Y020259D02*
X003840Y020259D01*
X003840Y020297D02*
X004134Y020297D01*
X004134Y020336D02*
X003840Y020336D01*
X003840Y020374D02*
X004134Y020374D01*
X004134Y020413D02*
X003840Y020413D01*
X003840Y020451D02*
X004134Y020451D01*
X004134Y020490D02*
X003840Y020490D01*
X003840Y020528D02*
X004134Y020528D01*
X004134Y020567D02*
X003840Y020567D01*
X003840Y020605D02*
X004134Y020605D01*
X004134Y020644D02*
X003840Y020644D01*
X003840Y020682D02*
X004134Y020682D01*
X004134Y020721D02*
X003840Y020721D01*
X003840Y020759D02*
X004134Y020759D01*
X004134Y020798D02*
X003840Y020798D01*
X003840Y020836D02*
X004134Y020836D01*
X004134Y020875D02*
X003840Y020875D01*
X003840Y020913D02*
X004134Y020913D01*
X004134Y020952D02*
X003840Y020952D01*
X003840Y020990D02*
X004134Y020990D01*
X004134Y021029D02*
X003840Y021029D01*
X003840Y021067D02*
X004134Y021067D01*
X004134Y021106D02*
X003840Y021106D01*
X003840Y021144D02*
X004134Y021144D01*
X004134Y021183D02*
X003840Y021183D01*
X003840Y021221D02*
X004134Y021221D01*
X004134Y021260D02*
X003840Y021260D01*
X003840Y021298D02*
X004134Y021298D01*
X004134Y021337D02*
X003840Y021337D01*
X003840Y021375D02*
X004134Y021375D01*
X004134Y021414D02*
X003840Y021414D01*
X003840Y021452D02*
X004134Y021452D01*
X004134Y021491D02*
X003840Y021491D01*
X003840Y021529D02*
X004134Y021529D01*
X004134Y021568D02*
X003840Y021568D01*
X003840Y021606D02*
X004134Y021606D01*
X004134Y021645D02*
X003840Y021645D01*
X003840Y021683D02*
X004134Y021683D01*
X004134Y021722D02*
X003840Y021722D01*
X003840Y021760D02*
X004134Y021760D01*
X004134Y021799D02*
X003840Y021799D01*
X003840Y021837D02*
X004134Y021837D01*
X004134Y021876D02*
X003840Y021876D01*
X003840Y021914D02*
X004134Y021914D01*
X004134Y021953D02*
X003840Y021953D01*
X003840Y021991D02*
X004134Y021991D01*
X004134Y022030D02*
X003840Y022030D01*
X003840Y022068D02*
X004134Y022068D01*
X004134Y022107D02*
X003840Y022107D01*
X003840Y022145D02*
X004134Y022145D01*
X004134Y022184D02*
X003814Y022184D01*
X003776Y022222D02*
X004134Y022222D01*
X004134Y022261D02*
X003737Y022261D01*
X003699Y022299D02*
X004134Y022299D01*
X004134Y022338D02*
X003660Y022338D01*
X003622Y022376D02*
X004134Y022376D01*
X004134Y022415D02*
X003583Y022415D01*
X003545Y022453D02*
X004134Y022453D01*
X004134Y022492D02*
X003506Y022492D01*
X003468Y022530D02*
X004134Y022530D01*
X004134Y022569D02*
X003429Y022569D01*
X003391Y022607D02*
X004134Y022607D01*
X004134Y022646D02*
X003387Y022646D01*
X003387Y022684D02*
X004134Y022684D01*
X004134Y022723D02*
X003387Y022723D01*
X003387Y022761D02*
X004134Y022761D01*
X004134Y022800D02*
X003387Y022800D01*
X003387Y022838D02*
X004134Y022838D01*
X004134Y022877D02*
X003387Y022877D01*
X003387Y022915D02*
X004134Y022915D01*
X004134Y022954D02*
X003387Y022954D01*
X003387Y022992D02*
X004134Y022992D01*
X004134Y023031D02*
X003387Y023031D01*
X003387Y023069D02*
X004134Y023069D01*
X004134Y023108D02*
X003387Y023108D01*
X003387Y023146D02*
X004134Y023146D01*
X004134Y023185D02*
X003387Y023185D01*
X003387Y023223D02*
X004134Y023223D01*
X004134Y023262D02*
X003387Y023262D01*
X003387Y023300D02*
X004134Y023300D01*
X004068Y023339D02*
X003387Y023339D01*
X003387Y023377D02*
X003985Y023377D01*
X003947Y023416D02*
X003387Y023416D01*
X003387Y023454D02*
X003908Y023454D01*
X003878Y023493D02*
X003387Y023493D01*
X003387Y023531D02*
X003862Y023531D01*
X003846Y023570D02*
X003387Y023570D01*
X003387Y023608D02*
X003830Y023608D01*
X003824Y023647D02*
X003387Y023647D01*
X003387Y023685D02*
X003824Y023685D01*
X003824Y023724D02*
X003387Y023724D01*
X003387Y023762D02*
X003824Y023762D01*
X003834Y023801D02*
X003387Y023801D01*
X003387Y023839D02*
X003849Y023839D01*
X003865Y023878D02*
X003387Y023878D01*
X003387Y023916D02*
X003881Y023916D01*
X003917Y023955D02*
X003387Y023955D01*
X003387Y023993D02*
X003956Y023993D01*
X003996Y024032D02*
X003387Y024032D01*
X003387Y024070D02*
X004089Y024070D01*
X004338Y024070D02*
X005089Y024070D01*
X004996Y024032D02*
X004431Y024032D01*
X004472Y023993D02*
X004956Y023993D01*
X004917Y023955D02*
X004510Y023955D01*
X004546Y023916D02*
X004881Y023916D01*
X004865Y023878D02*
X004562Y023878D01*
X004578Y023839D02*
X004849Y023839D01*
X004834Y023801D02*
X004594Y023801D01*
X004603Y023762D02*
X004824Y023762D01*
X004824Y023724D02*
X004603Y023724D01*
X004603Y023685D02*
X004824Y023685D01*
X004824Y023647D02*
X004603Y023647D01*
X004597Y023608D02*
X004830Y023608D01*
X004846Y023570D02*
X004581Y023570D01*
X004566Y023531D02*
X004862Y023531D01*
X004878Y023493D02*
X004550Y023493D01*
X004519Y023454D02*
X004908Y023454D01*
X004947Y023416D02*
X004480Y023416D01*
X004442Y023377D02*
X004980Y023377D01*
X004980Y023339D02*
X004360Y023339D01*
X003781Y022133D02*
X003781Y013291D01*
X003977Y013094D01*
X004135Y013094D01*
X004214Y013015D01*
X004450Y013015D01*
X004657Y012808D01*
X004666Y012208D01*
X004568Y012109D01*
X004470Y012011D02*
X004470Y012592D01*
X004066Y012995D01*
X003849Y012995D01*
X003682Y013163D01*
X003682Y021231D01*
X002214Y022700D01*
X002214Y021700D02*
X003584Y020330D01*
X003584Y012995D01*
X003879Y012700D01*
X004066Y012700D01*
X004273Y012493D01*
X004273Y012208D01*
X004371Y012109D01*
X004470Y012011D02*
X004371Y011913D01*
X004371Y011716D02*
X004273Y011617D01*
X002993Y011617D01*
X002698Y011913D01*
X002698Y012216D01*
X002214Y012700D01*
X002796Y013117D02*
X002214Y013700D01*
X002796Y013117D02*
X002796Y012011D01*
X003092Y011716D01*
X003977Y011716D01*
X003977Y011519D02*
X002395Y011519D01*
X002214Y011700D01*
X002934Y011420D02*
X002214Y010700D01*
X002796Y010283D02*
X002214Y009700D01*
X002895Y009381D02*
X002214Y008700D01*
X002993Y008480D02*
X002214Y007700D01*
X003092Y007578D02*
X002214Y006700D01*
X003190Y006676D02*
X002214Y005700D01*
X002214Y004700D02*
X003288Y005775D01*
X003288Y010633D01*
X003387Y010731D01*
X003977Y010731D01*
X004076Y010830D01*
X004076Y010978D01*
X004174Y011076D01*
X004174Y011125D01*
X004076Y011076D02*
X004027Y011027D01*
X003288Y011027D01*
X003092Y010830D01*
X003092Y007578D01*
X002993Y008480D02*
X002993Y010928D01*
X003190Y011125D01*
X003977Y011125D01*
X004027Y011224D02*
X003092Y011224D01*
X002895Y011027D01*
X002895Y009381D01*
X002796Y010283D02*
X002796Y011125D01*
X002993Y011322D01*
X003977Y011322D01*
X004076Y011273D02*
X004027Y011224D01*
X004076Y011273D02*
X004076Y011371D01*
X004125Y011420D01*
X004273Y011420D01*
X004371Y011519D01*
X004371Y011322D02*
X004470Y011224D01*
X004470Y008566D01*
X005946Y007090D01*
X005946Y003448D01*
X006438Y002956D01*
X006438Y002464D01*
X006450Y002464D01*
X007214Y001700D01*
X007214Y002700D02*
X006044Y003869D01*
X006044Y007188D01*
X004568Y008665D01*
X004568Y010928D01*
X004666Y011027D02*
X004568Y011125D01*
X004666Y011027D02*
X004666Y008763D01*
X006143Y007287D01*
X006143Y004771D01*
X007214Y003700D01*
X007214Y004700D02*
X006241Y005672D01*
X006241Y007385D01*
X004765Y008861D01*
X004765Y010928D01*
X004863Y011027D02*
X004765Y011125D01*
X004765Y011420D02*
X004824Y011420D01*
X004765Y011617D02*
X004706Y011617D01*
X004627Y011420D02*
X004568Y011420D01*
X004470Y011814D02*
X004568Y011913D01*
X004568Y012306D02*
X004568Y012700D01*
X004450Y012818D01*
X004371Y012533D02*
X004056Y012848D01*
X003997Y012848D01*
X004027Y012602D02*
X003781Y012602D01*
X003485Y012897D01*
X003485Y019428D01*
X002214Y020700D01*
X002214Y019700D02*
X003387Y018527D01*
X003387Y012798D01*
X003682Y012503D01*
X003987Y012503D01*
X004076Y012415D01*
X004076Y012257D01*
X004174Y012159D01*
X004174Y012109D01*
X004174Y012306D02*
X004174Y012454D01*
X004027Y012602D01*
X003977Y012306D02*
X003889Y012306D01*
X003820Y012375D01*
X003603Y012375D01*
X004036Y013231D02*
X003879Y013389D01*
X003879Y016834D01*
X004155Y015141D02*
X004155Y015072D01*
X003977Y014895D01*
X003977Y013881D01*
X004273Y013586D01*
X004273Y013468D01*
X004214Y013231D02*
X004036Y013231D01*
X004214Y013231D02*
X004253Y013192D01*
X004371Y012533D02*
X004371Y012306D01*
X004174Y011519D02*
X004125Y011519D01*
X004027Y011420D01*
X002934Y011420D01*
X003387Y010928D02*
X003190Y010731D01*
X003190Y006676D01*
X003387Y004873D02*
X002214Y003700D01*
X002214Y002700D02*
X003485Y003972D01*
X003485Y010436D01*
X003584Y010535D01*
X004174Y010535D01*
X004273Y010633D01*
X004273Y011027D01*
X004371Y011125D01*
X004371Y010928D02*
X004371Y010535D01*
X004273Y010436D01*
X003682Y010436D01*
X003584Y010338D01*
X003584Y003546D01*
X002993Y002956D01*
X002993Y002480D01*
X002214Y001700D01*
X003387Y004873D02*
X003387Y010535D01*
X003485Y010633D01*
X004076Y010633D01*
X004174Y010731D01*
X004174Y010928D01*
X004076Y011076D02*
X004076Y011174D01*
X004174Y011273D01*
X004174Y011322D01*
X003977Y010928D02*
X003387Y010928D01*
X004765Y013192D02*
X004598Y013359D01*
X004598Y014245D01*
X004273Y014570D01*
X004381Y014678D01*
X004489Y015023D02*
X004489Y015072D01*
X005060Y014570D02*
X005178Y014688D01*
X005454Y015485D02*
X005384Y015554D01*
X005454Y015485D02*
X005454Y012995D01*
X005159Y012700D01*
X005159Y012306D01*
X005257Y012257D02*
X005159Y012159D01*
X005159Y012109D01*
X005257Y012060D02*
X005159Y011962D01*
X005159Y011913D01*
X005208Y011814D02*
X005257Y011863D01*
X005257Y011962D01*
X005306Y012011D01*
X005749Y012011D01*
X006044Y012306D01*
X006044Y018531D01*
X007214Y019700D01*
X007214Y018700D02*
X006143Y017629D01*
X006143Y012208D01*
X005848Y011913D01*
X005355Y011913D01*
X005306Y011814D02*
X005946Y011814D01*
X006241Y012109D01*
X006241Y016728D01*
X007214Y017700D01*
X007214Y016700D02*
X006340Y015826D01*
X006340Y012011D01*
X006044Y011716D01*
X005355Y011716D01*
X005306Y011814D02*
X005208Y011716D01*
X005159Y011716D01*
X005208Y011814D02*
X005060Y011814D01*
X004962Y011716D01*
X005060Y011617D02*
X004962Y011519D01*
X005060Y011617D02*
X006143Y011617D01*
X006438Y011913D01*
X006438Y014924D01*
X007214Y015700D01*
X007214Y014700D02*
X006536Y014023D01*
X006536Y011814D01*
X006241Y011519D01*
X005355Y011519D01*
X005257Y011420D02*
X006340Y011420D01*
X006635Y011716D01*
X006635Y013121D01*
X007214Y013700D01*
X007214Y012700D02*
X006733Y012220D01*
X006733Y011617D01*
X006438Y011322D01*
X005355Y011322D01*
X005257Y011224D02*
X006737Y011224D01*
X007214Y011700D01*
X007214Y010700D02*
X005879Y010700D01*
X005552Y011027D01*
X005316Y011027D01*
X005218Y011125D01*
X005159Y011125D01*
X005208Y011027D02*
X005109Y011027D01*
X005060Y011076D01*
X005060Y011224D01*
X004962Y011322D01*
X004962Y011125D02*
X004962Y011076D01*
X005060Y010978D01*
X005060Y009157D01*
X006517Y007700D01*
X007214Y007700D01*
X006438Y007476D02*
X007214Y006700D01*
X006340Y006574D02*
X007214Y005700D01*
X006438Y007476D02*
X006438Y007582D01*
X004962Y009058D01*
X004962Y010928D01*
X004863Y011027D02*
X004863Y008960D01*
X006340Y007483D01*
X006340Y006574D01*
X005714Y008700D02*
X007214Y008700D01*
X007214Y009700D02*
X005599Y009700D01*
X005257Y010043D01*
X005257Y010978D01*
X005208Y011027D01*
X005159Y010928D02*
X005159Y009255D01*
X005714Y008700D01*
X005533Y010830D02*
X005434Y010928D01*
X005355Y010928D01*
X005355Y011125D02*
X005680Y011125D01*
X005779Y011027D01*
X005651Y012109D02*
X005946Y012405D01*
X005946Y019432D01*
X007214Y020700D01*
X007214Y021700D02*
X005848Y020334D01*
X005848Y012503D01*
X005552Y012208D01*
X005306Y012208D01*
X005257Y012159D01*
X005257Y012060D01*
X005355Y012109D02*
X005651Y012109D01*
X005355Y012493D02*
X005473Y012611D01*
X005473Y012907D01*
X005552Y012985D01*
X005336Y012680D02*
X005257Y012602D01*
X005257Y012257D01*
X005355Y012306D02*
X005355Y012493D01*
X005060Y012798D02*
X005109Y012848D01*
X005060Y012798D02*
X005060Y012011D01*
X004962Y011913D01*
X005159Y011519D02*
X005257Y011420D01*
X005159Y011322D02*
X005257Y011224D01*
X004765Y012306D02*
X004765Y013192D01*
X005060Y012995D02*
X005060Y013586D01*
X003781Y022133D02*
X002214Y023700D01*
X003387Y024109D02*
X006044Y024109D01*
X006044Y024070D02*
X005338Y024070D01*
X005431Y024032D02*
X006044Y024032D01*
X006044Y023993D02*
X005472Y023993D01*
X005510Y023955D02*
X006044Y023955D01*
X006044Y023916D02*
X005546Y023916D01*
X005562Y023878D02*
X006044Y023878D01*
X006044Y023839D02*
X005578Y023839D01*
X005594Y023801D02*
X006044Y023801D01*
X006044Y023762D02*
X005603Y023762D01*
X005603Y023724D02*
X006044Y023724D01*
X006044Y023685D02*
X005603Y023685D01*
X005603Y023647D02*
X006044Y023647D01*
X006044Y023608D02*
X005597Y023608D01*
X005581Y023570D02*
X006044Y023570D01*
X006044Y023531D02*
X005566Y023531D01*
X005550Y023493D02*
X006044Y023493D01*
X006044Y023454D02*
X005519Y023454D01*
X005480Y023416D02*
X006044Y023416D01*
X006044Y023377D02*
X005442Y023377D01*
X005360Y023339D02*
X006044Y023339D01*
D16*
X005552Y022543D03*
X005355Y020869D03*
X005257Y019688D03*
X005355Y018606D03*
X005355Y017523D03*
X005060Y017228D03*
X004765Y016735D03*
X004470Y017228D03*
X004666Y017523D03*
X004666Y018606D03*
X004666Y019688D03*
X004666Y020869D03*
X004666Y022543D03*
X003977Y020869D03*
X003977Y019688D03*
X003977Y018606D03*
X003977Y017523D03*
X004676Y014865D03*
X004962Y016145D03*
X004558Y013182D03*
X004450Y012818D03*
X004253Y013192D03*
X003997Y012848D03*
X003603Y012375D03*
X004273Y010239D03*
X004627Y011420D03*
X004706Y011617D03*
X004824Y011420D03*
X004509Y011617D03*
X004912Y013094D03*
X005109Y012848D03*
X005336Y012680D03*
X005670Y012798D03*
X005779Y011027D03*
X005533Y010830D03*
X005060Y007690D03*
X005454Y007287D03*
X004470Y002759D03*
X003387Y002267D03*
X003387Y001775D03*
X003387Y000791D03*
X003781Y022543D03*
D17*
X004214Y023700D02*
X004214Y017483D01*
X004470Y017228D01*
X004538Y016735D02*
X004765Y016735D01*
X004991Y016735D01*
X005060Y017228D02*
X005060Y023546D01*
X005214Y023700D01*
X005326Y016735D02*
X005326Y016087D01*
X005286Y016046D02*
X005060Y016046D01*
X004962Y016145D01*
X004962Y015289D02*
X005178Y015072D01*
X005178Y014688D01*
X004962Y015289D02*
X004302Y015289D01*
X004155Y015141D01*
X004381Y014915D02*
X004381Y014678D01*
X004381Y014915D02*
X004489Y015023D01*
X004676Y014865D02*
X004735Y014806D01*
X004844Y014915D01*
X004844Y015072D01*
X004735Y014806D02*
X004735Y013911D01*
X005060Y013586D01*
X004558Y013182D02*
X004273Y013468D01*
X004204Y016087D02*
X004204Y016735D01*
X004273Y010239D02*
X004273Y008566D01*
X004716Y008123D01*
X004716Y005466D01*
X004214Y004964D01*
X004214Y004700D01*
X004214Y003409D01*
X004666Y002956D01*
X004666Y000791D01*
X004729Y000728D01*
X005481Y000728D01*
X005481Y002228D02*
X004903Y002228D01*
X004863Y002267D01*
X004863Y003350D01*
X004716Y003497D01*
X004716Y005005D01*
X005214Y005503D01*
X005214Y005700D01*
X005214Y007537D01*
X005060Y007690D01*
X005454Y007287D02*
X005690Y007050D01*
X005690Y005176D01*
X005214Y004700D01*
X005214Y003590D01*
X005481Y003322D01*
X005481Y002728D01*
X004470Y002728D02*
X003946Y002728D01*
X003712Y002728D01*
X003712Y005198D01*
X004214Y005700D01*
X004470Y002759D02*
X004470Y002728D01*
X003946Y002228D02*
X003426Y002228D01*
X003387Y002267D01*
X003387Y001775D02*
X003434Y001728D01*
X003946Y001728D01*
X003946Y000728D02*
X003450Y000728D01*
X003387Y000791D01*
M02*
