G75*
%MOIN*%
%OFA0B0*%
%FSLAX24Y24*%
%IPPOS*%
%LPD*%
%AMOC8*
5,1,8,0,0,1.08239X$1,22.5*
%
%ADD10C,0.0910*%
%ADD11C,0.0154*%
%ADD12C,0.0050*%
%ADD13C,0.0154*%
D10*
X002214Y000700D03*
X002214Y001700D03*
X002214Y002700D03*
X002214Y003700D03*
X002214Y004700D03*
X002214Y005700D03*
X002214Y006700D03*
X002214Y007700D03*
X002214Y008700D03*
X002214Y009700D03*
X002214Y010700D03*
X002214Y011700D03*
X002214Y012700D03*
X002214Y013700D03*
X002214Y014700D03*
X002214Y015700D03*
X002214Y016700D03*
X002214Y017700D03*
X002214Y018700D03*
X002214Y019700D03*
X002214Y020700D03*
X002214Y021700D03*
X002214Y022700D03*
X002214Y023700D03*
X004214Y023700D03*
X005214Y023700D03*
X007214Y023700D03*
X007214Y022700D03*
X007214Y021700D03*
X007214Y020700D03*
X007214Y019700D03*
X007214Y018700D03*
X007214Y017700D03*
X007214Y016700D03*
X007214Y015700D03*
X007214Y014700D03*
X007214Y013700D03*
X007214Y012700D03*
X007214Y011700D03*
X007214Y010700D03*
X007214Y009700D03*
X007214Y008700D03*
X007214Y007700D03*
X007214Y006700D03*
X007214Y005700D03*
X007214Y004700D03*
X007214Y003700D03*
X007214Y002700D03*
X007214Y001700D03*
X007214Y000700D03*
X005214Y004700D03*
X005214Y005700D03*
X004214Y005700D03*
X004214Y004700D03*
D11*
X004221Y012054D02*
X004017Y012054D01*
X004221Y012054D02*
X004221Y011772D01*
X004017Y011772D01*
X004017Y012054D01*
X004017Y011925D02*
X004221Y011925D01*
X004423Y012362D02*
X004627Y012362D01*
X004423Y012362D02*
X004423Y012644D01*
X004627Y012644D01*
X004627Y012362D01*
X004627Y012515D02*
X004423Y012515D01*
X004903Y012362D02*
X005107Y012362D01*
X004903Y012362D02*
X004903Y012644D01*
X005107Y012644D01*
X005107Y012362D01*
X005107Y012515D02*
X004903Y012515D01*
X003741Y012054D02*
X003537Y012054D01*
X003741Y012054D02*
X003741Y011772D01*
X003537Y011772D01*
X003537Y012054D01*
X003537Y011925D02*
X003741Y011925D01*
D12*
X003639Y011937D02*
X004109Y011937D01*
X004109Y011889D02*
X003639Y011889D01*
X003639Y011840D02*
X004109Y011840D01*
X004109Y011792D02*
X003639Y011792D01*
X003639Y011743D02*
X004109Y011743D01*
X004109Y011723D02*
X004109Y012103D01*
X003639Y012103D01*
X003639Y011723D01*
X004109Y011723D01*
X004109Y011986D02*
X003639Y011986D01*
X003639Y012034D02*
X004109Y012034D01*
X004109Y012083D02*
X003639Y012083D01*
X004535Y012313D02*
X004535Y012693D01*
X005005Y012693D01*
X005005Y012313D01*
X004535Y012313D01*
X004535Y012325D02*
X005005Y012325D01*
X005005Y012374D02*
X004535Y012374D01*
X004535Y012422D02*
X005005Y012422D01*
X005005Y012471D02*
X004535Y012471D01*
X004535Y012519D02*
X005005Y012519D01*
X005005Y012568D02*
X004535Y012568D01*
X004535Y012616D02*
X005005Y012616D01*
X005005Y012665D02*
X004535Y012665D01*
D13*
X004524Y011987D02*
X004474Y011987D01*
X004524Y011987D02*
X004524Y011839D01*
X004474Y011839D01*
X004474Y011987D01*
X004809Y011987D02*
X004859Y011987D01*
X004859Y011839D01*
X004809Y011839D01*
X004809Y011987D01*
X004809Y011199D02*
X004859Y011199D01*
X004859Y011051D01*
X004809Y011051D01*
X004809Y011199D01*
X004524Y011199D02*
X004474Y011199D01*
X004524Y011199D02*
X004524Y011051D01*
X004474Y011051D01*
X004474Y011199D01*
X003608Y012508D02*
X003608Y012558D01*
X003756Y012558D01*
X003756Y012508D01*
X003608Y012508D01*
X003608Y012842D02*
X003608Y012892D01*
X003756Y012892D01*
X003756Y012842D01*
X003608Y012842D01*
X005360Y012577D02*
X005410Y012577D01*
X005410Y012429D01*
X005360Y012429D01*
X005360Y012577D01*
X005695Y012577D02*
X005745Y012577D01*
X005745Y012429D01*
X005695Y012429D01*
X005695Y012577D01*
M02*
