%
M48
M72
T01C0.0060
T02C0.0354
%
T01
X3387Y791
X3387Y1775
X3387Y2267
X4470Y2759
X5454Y7287
X5060Y7690
X4273Y10239
X4627Y11420
X4706Y11617
X4824Y11420
X4509Y11617
X4450Y12818
X4558Y13182
X4253Y13192
X3997Y12848
X3603Y12375
X4676Y14865
X4962Y16145
X4765Y16735
X4470Y17228
X4666Y17523
X4666Y18606
X4666Y19688
X4666Y20869
X4666Y22543
X3977Y20869
X3977Y19688
X3977Y18606
X3977Y17523
X5060Y17228
X5355Y17523
X5355Y18606
X5257Y19688
X5355Y20869
X5552Y22543
X3781Y22543
X4912Y13094
X5109Y12848
X5336Y12680
X5670Y12798
X5779Y11027
X5533Y10830
T02
X2214Y700
X2214Y1700
X2214Y2700
X2214Y3700
X2214Y4700
X2214Y5700
X2214Y6700
X2214Y7700
X2214Y8700
X2214Y9700
X2214Y10700
X2214Y11700
X2214Y12700
X2214Y13700
X2214Y14700
X2214Y15700
X2214Y16700
X2214Y17700
X2214Y18700
X2214Y19700
X2214Y20700
X2214Y21700
X2214Y22700
X2214Y23700
X4214Y23700
X5214Y23700
X7214Y23700
X7214Y22700
X7214Y21700
X7214Y20700
X7214Y19700
X7214Y18700
X7214Y17700
X7214Y16700
X7214Y15700
X7214Y14700
X7214Y13700
X7214Y12700
X7214Y11700
X7214Y10700
X7214Y9700
X7214Y8700
X7214Y7700
X7214Y6700
X7214Y5700
X7214Y4700
X7214Y3700
X7214Y2700
X7214Y1700
X7214Y700
X5214Y4700
X5214Y5700
X4214Y5700
X4214Y4700
M30
